<svg xmlns="http://www.w3.org/2000/svg" width="340" height="64" viewBox="0 0 340 64" role="img" aria-label="信誠SHINSEI ロゴ（パス化・濃色背景用）">
  <defs>
    <linearGradient id="goldInv" x1="0" y1="0" x2="1" y2="0">
      <stop offset="0" stop-color="#C5A05A"/>
      <stop offset="1" stop-color="#E2C98D"/>
    </linearGradient>
  </defs>

  <!-- Link mark -->
  <g transform="translate(8 8)" fill="none" stroke-linecap="round" stroke-linejoin="round">
    <g transform="rotate(-12 24 25)">
      <rect x="6" y="14" width="36" height="22" rx="11" stroke="#FFFFFF" stroke-width="5"/>
    </g>

    <g transform="rotate(-12 40 25)">
      <rect x="22" y="14" width="36" height="22" rx="11" stroke="url(#goldInv)" stroke-width="5"/>
    </g>
  </g>

  <!-- Wordmark (outlined paths) -->
<g fill="#FFFFFF" transform="translate(84 42) scale(0.026000 -0.026000)">
  <path d="M423 810V716H884V810ZM408 522V428H902V522ZM408 379V285H898V379ZM328 668V571H972V668ZM392 236V-89H507V-50H795V-86H916V236ZM507 45V143H795V45ZM255 847C200 704 107 562 12 472C32 443 64 378 75 349C103 377 131 409 158 444V-87H272V617C308 680 340 747 366 811Z" transform="translate(0 0)"/>
  <path d="M802 803C835 765 873 711 889 677L971 723C954 758 914 809 879 845ZM71 543V452H337V543ZM78 818V728H335V818ZM71 406V316H337V406ZM30 684V589H363V684ZM574 362C571 236 569 190 561 177C554 167 547 166 537 166C527 166 510 166 488 168C497 236 501 303 502 362ZM68 268V-76H162V-35H336V-28C361 -44 398 -75 413 -93C451 -22 474 69 487 161C500 132 508 92 509 60C543 60 573 61 593 65C617 70 631 78 647 100C667 127 670 216 674 420C674 433 674 460 674 460H503V567H690C696 403 706 264 725 156C679 82 627 21 570 -25C595 -40 628 -69 643 -86C683 -54 721 -14 756 32C784 -45 822 -88 874 -90C912 -91 960 -53 985 122C967 131 923 161 906 183C900 96 891 46 877 46C858 48 843 82 830 142C884 237 928 347 959 468L862 509C847 442 828 380 806 321C799 393 795 476 792 567H965V674H790L789 849H684L687 674H395V413C395 292 390 126 336 2V268ZM162 174H240V59H162Z" transform="translate(1020 0)"/>
  <path d="M312 -14C483 -14 584 89 584 210C584 317 525 375 435 412L338 451C275 477 223 496 223 549C223 598 263 627 328 627C390 627 439 604 486 566L561 658C501 719 415 754 328 754C179 754 72 660 72 540C72 432 148 372 223 342L321 299C387 271 433 254 433 199C433 147 392 114 315 114C250 114 179 147 127 196L42 94C114 24 213 -14 312 -14Z" transform="translate(2040 0)"/>
  <path d="M91 0H239V320H519V0H666V741H519V448H239V741H91Z" transform="translate(2684 0)"/>
  <path d="M91 0H239V741H91Z" transform="translate(3461 0)"/>
  <path d="M91 0H232V297C232 382 219 475 213 555H218L293 396L506 0H657V741H517V445C517 361 529 263 537 186H532L457 346L242 741H91Z" transform="translate(3811 0)"/>
  <path d="M312 -14C483 -14 584 89 584 210C584 317 525 375 435 412L338 451C275 477 223 496 223 549C223 598 263 627 328 627C390 627 439 604 486 566L561 658C501 719 415 754 328 754C179 754 72 660 72 540C72 432 148 372 223 342L321 299C387 271 433 254 433 199C433 147 392 114 315 114C250 114 179 147 127 196L42 94C114 24 213 -14 312 -14Z" transform="translate(4580 0)"/>
  <path d="M91 0H556V124H239V322H498V446H239V617H545V741H91Z" transform="translate(5224 0)"/>
  <path d="M91 0H239V741H91Z" transform="translate(5859 0)"/>
</g>
</svg>
